<?xml version="1.0" standalone="no"?><!DOCTYPE svg PUBLIC "-//W3C//DTD SVG 1.1//EN" "http://www.w3.org/Graphics/SVG/1.1/DTD/svg11.dtd"><svg t="1640423819495" class="icon" viewBox="0 0 1024 1024" version="1.1" xmlns="http://www.w3.org/2000/svg" p-id="6901" xmlns:xlink="http://www.w3.org/1999/xlink" width="200" height="200"><defs><style type="text/css"></style></defs><path d="M512 0l96.975066 434.829135L512 890.000225H285.613586c-209.025803-83.496177-204.243702-148.453215-204.243703-459.347444C81.367823 193.181618 274.551501 0 512 0z" fill="#2c2c2c" p-id="6902" data-spm-anchor-id="a313x.7781069.0.i18" class="selected"></path><path d="M738.386414 890.000225H512V0c237.448499 0 430.632177 193.181618 430.632177 430.652781 0 310.894229 4.782101 375.851268-204.245763 459.347444z" fill="#2c2c2c" p-id="6903" data-spm-anchor-id="a313x.7781069.0.i21" class="selected"></path><path d="M216.680048 348.582374c0-112.124909 30.998149-214.397167 81.961208-291.903871C168.947638 130.966922 81.369883 270.766616 81.369883 430.652781c0 310.89629-4.782101 375.851268 204.243703 459.347444H512l21.996427-103.240627c-175.717988-3.75398-317.316378-198.476748-317.316379-438.177224z" fill="#2c2c2c" p-id="6904" data-spm-anchor-id="a313x.7781069.0.i20" class="selected"></path><path d="M317.215421 1024h-73.678552c0-185.133843 121.610817-267.976885 121.610817-267.976885h293.702568S780.46107 838.866157 780.46107 1024h-73.678551L512 957.005264z" fill="#FFD8D2" p-id="6905"></path><path d="M365.147686 756.023115h82.88425v174.314881h-82.88425zM658.850254 930.335936h-82.88425v-174.314882h82.88425z" fill="#5C586F" p-id="6906"></path><path d="M710.534439 995.977014c0 9.691944-1.30627 19.089256-3.74986 28.022986H317.215421a106.085988 106.085988 0 0 1-3.74986-28.022986c0-58.446294 46.119147-105.197972 104.565441-105.956185 24.186592-0.315235 46.541521 7.479115 64.51406 20.836443 17.593433 13.0833 41.316443 13.0833 58.909876 0 17.972539-13.357328 40.325408-21.153738 64.51406-20.836443 58.444233 0.758213 104.565441 47.511952 104.565441 105.956185z" fill="#50E1CD" p-id="6907"></path><path d="M867.581425 399.827702c-3.601513-41.996362-32.211702-77.815759-72.30223-90.837247-112.386575-36.507557-185.566519-36.054278-283.281255-168.323348-97.714736 132.26701-170.89468 131.81373-283.281256 168.323348-40.074044 13.017368-68.692475 48.816161-72.296048 90.79604a361.175308 361.175308 0 0 0-1.24858 38.06107c3.81373 192.786028 162.166986 348.720419 354.990101 349.690849 197.953416 0.997215 358.735839-159.171219 358.735839-356.893875 0-10.382165-0.445038-20.661312-1.316571-30.816837z" fill="#FFD8D2" p-id="6908"></path><path d="M216.680048 348.582374c0-11.894471 0.360563-23.671501 1.044604-35.32697-34.243219 15.543372-58.038342 48.498865-61.304016 86.531091a361.175308 361.175308 0 0 0-1.24858 38.06107c3.81373 192.788089 162.166986 348.720419 354.990101 349.69291 8.406278 0.043268 16.738382-0.2287 25.000435-0.758213-176.255742-2.917473-318.482543-197.969899-318.482544-438.199888z" fill="#FFCABD" p-id="6909"></path><path d="M211.974181 487.473449a80.865095 64.39868 0 1 0 161.730189 0 80.865095 64.39868 0 1 0-161.730189 0Z" fill="#FF9DB0" p-id="6910"></path><path d="M650.29563 487.473449a80.865095 64.39868 0 1 0 161.730189 0 80.865095 64.39868 0 1 0-161.730189 0Z" fill="#FF9DB0" p-id="6911"></path><path d="M339.968 440.933988a15.452716 15.452716 0 0 1-15.452716-15.452716v-33.056451c0-8.53608 6.918696-15.452716 15.452716-15.452716s15.452716 6.916636 15.452716 15.452716v33.056451a15.452716 15.452716 0 0 1-15.452716 15.452716zM684.032 440.933988a15.452716 15.452716 0 0 1-15.452716-15.452716v-33.056451c0-8.53608 6.918696-15.452716 15.452716-15.452716s15.452716 6.916636 15.452716 15.452716v33.056451a15.452716 15.452716 0 0 1-15.452716 15.452716zM512 460.614567a75.600869 75.600869 0 0 1-57.00404-25.966744 15.452716 15.452716 0 1 1 23.300636-20.300749c8.507235 9.761996 20.793175 15.36206 33.705464 15.362061s25.198229-5.600064 33.705465-15.362061a15.452716 15.452716 0 1 1 23.300636 20.300749A75.615292 75.615292 0 0 1 512 460.614567z" fill="#423E4F" p-id="6912"></path><path d="M388.126905 987.047404c0-37.105062 15.199292-70.946511 40.183244-96.651589a107.431404 107.431404 0 0 0-10.277087-0.374986c-58.446294 0.758213-104.565441 47.511952-104.56544 105.956185 0 9.691944 1.30627 19.089256 3.749859 28.020926h76.099477a134.034801 134.034801 0 0 1-5.190053-36.950536z" fill="#00D1B3" p-id="6913"></path></svg>