<?xml version="1.0" standalone="no"?><!DOCTYPE svg PUBLIC "-//W3C//DTD SVG 1.1//EN" "http://www.w3.org/Graphics/SVG/1.1/DTD/svg11.dtd"><svg t="1640423833775" class="icon" viewBox="0 0 1024 1024" version="1.1" xmlns="http://www.w3.org/2000/svg" p-id="7251" xmlns:xlink="http://www.w3.org/1999/xlink" width="200" height="200"><defs><style type="text/css"></style></defs><path d="M438.171042 631.849207L132.672901 481.844539c-123.454841 190.187911 80.201658 209.971509 24.050608 371.545111-9.66928 27.823131 13.087421 56.190197 42.373409 53.052265 45.713256-4.899541 107.217127-24.081513 158.584016-84.340925 95.124861-111.589215 80.490109-190.251783 80.490108-190.251783z" fill="#515151" p-id="7252" data-spm-anchor-id="a313x.7781069.0.i24" class="selected"></path><path d="M585.828958 631.849207l305.500201-150.006728c123.454841 190.187911-80.201658 209.971509-24.050608 371.545111 9.66928 27.823131-13.087421 56.190197-42.373408 53.052265-45.713256-4.899541-107.217127-24.081513-158.584016-84.340925-95.126922-111.587155-80.492169-190.249722-80.492169-190.249723zM82.484539 432.198052C82.484539 195.363541 275.165489 2.682592 512 2.682592S941.515461 195.363541 941.515461 432.198052z" fill="#515151" p-id="7253" data-spm-anchor-id="a313x.7781069.0.i23" class="selected"></path><path d="M326.390213 98.386414L296.088467 61.048531C168.444909 135.582133 82.484539 274.026109 82.484539 432.198052h138.948765a518.302648 518.302648 0 0 1-0.595445-24.604845c0-116.975002 39.523928-224.441433 105.552354-309.206793z" fill="#515151" p-id="7254" data-spm-anchor-id="a313x.7781069.0.i26" class="selected"></path><path d="M779.762608 1024c0-184.637296-121.2894-267.270181-121.289401-267.270181H365.528853S244.239453 839.362704 244.239453 1024z" fill="#FF889E" p-id="7255"></path><path d="M406.099445 757.07802v56.126326c0 30.998149 25.128177 56.126326 56.126326 56.126326 21.642044 0 40.409883-12.255034 49.774229-30.198728 9.366406 17.941634 28.134245 30.198728 49.774229 30.198728 30.998149 0 56.126326-25.128177 56.126326-56.126326v-56.126326z" fill="#FFFFFF" p-id="7256"></path><path d="M383.206761 1024v-96.305449c0-8.53608-6.918696-15.452716-15.452717-15.452716s-15.452716 6.916636-15.452716 15.452716V1024zM671.698672 1024v-96.305449c0-8.53608-6.918696-15.452716-15.452716-15.452716s-15.452716 6.916636-15.452717 15.452716V1024z" fill="#FF748F" p-id="7257"></path><path d="M867.966712 453.211686m-100.512708 0a100.512708 100.512708 0 1 0 201.025417 0 100.512708 100.512708 0 1 0-201.025417 0Z" fill="#FFCABD" p-id="7258"></path><path d="M303.351243 981.381408c0-101.897272 52.310535-189.062954 126.333167-224.653649H365.528853s-121.2894 82.632885-121.2894 267.270181h62.222937a291.559791 291.559791 0 0 1-3.111147-42.616532z" fill="#FF748F" p-id="7259"></path><path d="M539.93027 216.344209c-15.351759-15.384724-40.508781-15.384724-55.86054 0-121.555187 121.804491-319.096531 136.737996-319.199549 136.744177a357.03192 357.03192 0 0 0-8.836893 79.109666c0 196.595638 159.371074 355.966712 355.966712 355.966713s355.966712-159.371074 355.966712-355.966713a357.060765 357.060765 0 0 0-8.836893-79.109666c-0.148346-0.010302-197.656724-14.952048-319.199549-136.744177z" fill="#FFDCCE" p-id="7260"></path><path d="M512 942.170656m-31.356652 0a31.356652 31.356652 0 1 0 62.713304 0 31.356652 31.356652 0 1 0-62.713304 0Z" fill="#FFFFFF" p-id="7261"></path><path d="M325.584612 46.661022c-107.40668-132.990197-116.777207 60.568467-116.777208 60.568467l32.988459 40.84668s191.195429 31.57299 83.788749-101.415147zM163.125054 144.122334s-191.195429-31.57299-83.788748 101.415147c107.40874 132.990197 116.777207-60.568467 116.777207-60.568467z" fill="#BC9BDD" p-id="7262" data-spm-anchor-id="a313x.7781069.0.i25" class=""></path><path d="M252.182149 105.941763c-18.780201-23.253247-52.856531-26.879485-76.109779-8.099284l-15.236378 12.304483c-23.253247 18.780201-26.879485 52.856531-8.099284 76.109778 18.780201 23.253247 52.856531 26.879485 76.109779 8.099284l15.236378-12.304483c23.253247-18.780201 26.879485-52.856531 8.099284-76.109778z" fill="#FFB5EC" p-id="7263"></path><path d="M698.415388 46.661022c107.40668-132.990197 116.777207 60.568467 116.777208 60.568467l-32.988459 40.84668s-191.195429 31.57299-83.788749-101.415147zM860.874946 144.122334s191.195429-31.57299 83.788748 101.415147c-107.40874 132.990197-116.777207-60.568467-116.777207-60.568467z" fill="#BC9BDD" p-id="7264"></path><path d="M771.817851 105.941763c18.780201-23.253247 52.856531-26.879485 76.109779-8.099284l15.236378 12.304483c23.253247 18.780201 26.879485 52.856531 8.099284 76.109778-18.780201 23.253247-52.856531 26.879485-76.109779 8.099284l-15.236378-12.304483c-23.253247-18.780201-26.879485-52.856531-8.099284-76.109778z" fill="#FFB5EC" p-id="7265"></path><path d="M357.357457 752.905787c-84.476909-89.252829-136.519598-211.034656-136.519598-345.31258 0-21.594656 1.351598-42.865835 3.962077-63.733183-36.111968 7.425545-59.894728 9.226302-59.931815 9.228362l-0.010302 0.047389a89.355847 89.355847 0 0 0-8.826592-0.436797c-55.512338 0-100.512708 45.00037-100.512708 100.512708s45.002431 100.514769 100.512708 100.514769c7.767565 0 14.490527-0.91068 20.36462-2.579574 31.439066 88.686229 97.028636 161.210978 180.96161 201.758906z" fill="#FFCABD" p-id="7266"></path><path d="M208.333521 497.330221a81.847887 65.179557 0 1 0 163.695775 0 81.847887 65.179557 0 1 0-163.695775 0Z" fill="#FF9DB0" p-id="7267"></path><path d="M651.970704 497.330221a81.847887 65.179557 0 1 0 163.695775 0 81.847887 65.179557 0 1 0-163.695775 0Z" fill="#FF9DB0" p-id="7268"></path><path d="M337.880853 450.040789a15.452716 15.452716 0 0 1-15.452716-15.452717v-33.458221c0-8.53608 6.918696-15.452716 15.452716-15.452716s15.452716 6.916636 15.452716 15.452716v33.458221a15.452716 15.452716 0 0 1-15.452716 15.452717zM686.119147 450.040789a15.452716 15.452716 0 0 1-15.452716-15.452717v-33.458221c0-8.53608 6.918696-15.452716 15.452716-15.452716s15.452716 6.916636 15.452716 15.452716v33.458221a15.452716 15.452716 0 0 1-15.452716 15.452717zM512 469.956249a76.336419 76.336419 0 0 1-57.554157-26.211927 15.452716 15.452716 0 1 1 23.298576-20.304869c8.64734 9.920644 21.133135 15.611364 34.255581 15.611364s25.608241-5.69072 34.255581-15.611364a15.452716 15.452716 0 1 1 23.298576 20.304869 76.336419 76.336419 0 0 1-57.554157 26.211927z" fill="#423E4F" p-id="7269"></path></svg>