<?xml version="1.0" standalone="no"?><!DOCTYPE svg PUBLIC "-//W3C//DTD SVG 1.1//EN" "http://www.w3.org/Graphics/SVG/1.1/DTD/svg11.dtd"><svg t="1640423769659" class="icon" viewBox="0 0 1024 1024" version="1.1" xmlns="http://www.w3.org/2000/svg" p-id="5618" xmlns:xlink="http://www.w3.org/1999/xlink" width="200" height="200"><defs><style type="text/css"></style></defs><path d="M81.355461 430.644539C81.355461 193.185738 274.54326 0 512 0s430.644539 193.185738 430.644539 430.644539z" fill="#E7886E" p-id="5619"></path><path d="M868.902117 451.713803m-100.778495 0a100.778495 100.778495 0 1 0 201.55699 0 100.778495 100.778495 0 1 0-201.55699 0Z" fill="#FFBD86" p-id="5620"></path><path d="M667.680966 1024H356.319034l-97.372716-108.663501c32.718551-109.240402 106.191066-159.307203 106.191066-159.307203h293.725232s73.472515 50.066801 106.191066 159.307203z" fill="#5C586F" p-id="5621"></path><path d="M220.059042 416.955493c0-202.883863 132.940748-372.752483 311.254793-416.500153A435.276233 435.276233 0 0 0 512 0C274.54326 0 81.357521 193.185738 81.357521 430.644539h138.928161a457.606439 457.606439 0 0 1-0.22664-13.689046z" fill="#E27858" p-id="5622"></path><path d="M770.50334 242.885795a108.519276 108.519276 0 0 1-103.401336 0 108.531638 108.531638 0 0 0-103.401336 0 108.531638 108.531638 0 0 1-103.401336 0 108.531638 108.531638 0 0 0-103.401336 0 108.531638 108.531638 0 0 1-103.401336 0 108.426559 108.426559 0 0 0-37.224563-12.106688c-38.615308 57.024644-61.174213 125.809835-61.174214 199.863372 0 197.110728 159.789328 356.902117 356.902117 356.902117s356.902117-159.789328 356.902117-356.902117c0-74.055598-22.558905-142.838728-61.174214-199.863372a108.426559 108.426559 0 0 0-37.224563 12.106688zM356.319034 915.336499V1024H243.534809c0-41.227847 6.036861-77.3666 15.411509-108.663501zM780.465191 1024h-112.784225v-108.663501h97.372716c9.374648 31.296901 15.411509 67.435654 15.411509 108.663501z" fill="#FED2A4" p-id="5623"></path><path d="M390.329433 766.256934c-103.003686-77.397505-170.27039-204.991614-170.270391-349.301441 0-61.78202 12.347751-120.48998 34.53167-173.519582-0.360563-0.191614-0.733489-0.354382-1.091992-0.548056a108.426559 108.426559 0 0 0-37.224563-12.106688 355.068394 355.068394 0 0 0-52.327018 120.595058 89.730833 89.730833 0 0 0-8.847195-0.438857c-55.658624 0-100.778495 45.119871-100.778495 100.778495s45.119871 100.778495 100.778495 100.778495c7.790229 0 14.535855-0.91274 20.430551-2.585754 35.574213 100.356121 114.768354 180.075654 214.798938 216.34833z" fill="#FFBD86" p-id="5624"></path><path d="M349.771203 589.018398c-70.901183 0-128.379107 57.477924-128.379106 128.379107s57.477924 128.379107 128.379106 128.379107h30.285264V589.018398zM674.228797 589.018398c70.901183 0 128.379107 57.477924 128.379106 128.379107s-57.477924 128.379107-128.379106 128.379107H643.945594V589.018398z" fill="#50E1CD" p-id="5625"></path><path d="M512 906.180249m-53.068748 0a53.068748 53.068748 0 1 0 106.137496 0 53.068748 53.068748 0 1 0-106.137496 0Z" fill="#FF889E" p-id="5626"></path><path d="M393.634254 572.327404c-34.962286 0-63.302567 28.342342-63.302568 63.302568v163.533006c0 34.960225 28.342342 63.302567 63.302568 63.302567 15.578398 0 28.208419-12.63002 28.208418-28.208418V600.535823c0-15.578398-12.63002-28.208419-28.208418-28.208419zM630.365746 572.327404c34.962286 0 63.302567 28.342342 63.302568 63.302568v163.533006c0 34.960225-28.342342 63.302567-63.302568 63.302567-15.578398 0-28.208419-12.63002-28.208418-28.208418V600.535823c0-15.578398 12.63002-28.208419 28.208418-28.208419z" fill="#FFFFFF" p-id="5627"></path><path d="M213.950068 488.90128a80.333521 63.974245 0 1 0 160.667043 0 80.333521 63.974245 0 1 0-160.667043 0Z" fill="#FF9DB0" p-id="5628"></path><path d="M649.382889 488.90128a80.333521 63.974245 0 1 0 160.667043 0 80.333521 63.974245 0 1 0-160.667043 0Z" fill="#FF9DB0" p-id="5629"></path><path d="M341.101199 442.771831a15.452716 15.452716 0 0 1-15.452716-15.452716v-32.838053c0-8.53608 6.918696-15.452716 15.452716-15.452716s15.452716 6.916636 15.452716 15.452716V427.319115a15.452716 15.452716 0 0 1-15.452716 15.452716zM682.898801 442.771831a15.452716 15.452716 0 0 1-15.452716-15.452716v-32.838053c0-8.53608 6.918696-15.452716 15.452716-15.452716s15.452716 6.916636 15.452716 15.452716V427.319115a15.452716 15.452716 0 0 1-15.452716 15.452716zM512 462.320547a75.201159 75.201159 0 0 1-56.705288-25.8287 15.452716 15.452716 0 1 1 23.300636-20.300748 44.31633 44.31633 0 0 0 33.406712 15.226076 44.308089 44.308089 0 0 0 33.406713-15.228137 15.452716 15.452716 0 0 1 23.300635 20.304869 75.227944 75.227944 0 0 1-56.709408 25.82664z" fill="#423E4F" p-id="5630"></path></svg>