<?xml version="1.0" standalone="no"?><!DOCTYPE svg PUBLIC "-//W3C//DTD SVG 1.1//EN" "http://www.w3.org/Graphics/SVG/1.1/DTD/svg11.dtd"><svg t="1640423812113" class="icon" viewBox="0 0 1024 1024" version="1.1" xmlns="http://www.w3.org/2000/svg" p-id="6737" xmlns:xlink="http://www.w3.org/1999/xlink" width="200" height="200"><defs><style type="text/css"></style></defs><path d="M1000.622842 175.196716c-27.468748-6.904274-51.453425-28.793561-67.507766-47.139026-9.893859-11.305207-18.207421-23.844571-25.88433-36.756861-33.637473-56.583726-107.357231-77.275944-166.417513-43.240821-21.186704 12.209706-37.424419 30.044201-47.816886 50.645763l163.681352 163.739042c8.795686 8.799807 19.451879 15.434173 31.068202 19.894857l0.160708 0.061811c58.316491 22.497095 103.531139-21.067203 130.67641-60.253232 12.191163-17.601674 2.806213-41.730575-17.960177-46.951533z" fill="#FBC072" p-id="6738"></path><path d="M654.982665 992.433191H369.02912l-95.00536-90.192354c28.583404-108.896322 101.617062-158.647887 101.617062-158.647887h272.728081s73.033658 49.751565 101.617062 158.647887z" fill="#9AE0EB" p-id="6739"></path><path d="M314.01951 938.464064c0-87.297545 46.889722-162.272064 113.898882-194.871114h-52.275509s-73.033658 49.751565-101.617063 158.647887l40.014294 37.986897c-0.006181-0.589264-0.020604-1.174406-0.020604-1.76367z" fill="#64D1E1" p-id="6740"></path><path d="M369.02912 902.240837v90.192354h-106.312628c0-33.649835 4.32264-63.681674 11.307268-90.192354zM761.295293 992.433191h-106.312628v-90.192354h95.00536c6.984628 26.50862 11.307268 56.540459 11.307268 90.192354z" fill="#FFD8D2" p-id="6741"></path><path d="M406.393788 743.59295v55.961497c0 29.164427 23.642656 52.807082 52.807083 52.807082s52.807082-23.642656 52.807082-52.807082v-55.961497z" fill="#FFFFFF" p-id="6742"></path><path d="M617.617997 743.59295v55.961497c0 29.164427-23.642656 52.807082-52.807082 52.807082s-52.807082-23.642656-52.807083-52.807082v-55.961497z" fill="#FFFFFF" p-id="6743"></path><path d="M512.005893 889.602575m-12.388958 0a12.388958 12.388958 0 1 0 24.777915 0 12.388958 12.388958 0 1 0-24.777915 0Z" fill="#FFFFFF" p-id="6744"></path><path d="M512.005893 945.102551m-12.388958 0a12.388958 12.388958 0 1 0 24.777915 0 12.388958 12.388958 0 1 0-24.777915 0Z" fill="#FFFFFF" p-id="6745"></path><path d="M135.256307 512.762334s31.842897 97.968161-6.347976 190.838986c-12.00573 29.195332 16.878487 58.773891 46.516797 47.907541 45.22907-16.585915 73.721819-52.145706 82.690576-128.16895V512.762334zM888.755478 512.762334s-31.842897 97.968161 6.347976 190.838986c12.00573 29.195332-16.878487 58.773891-46.516797 47.907541-45.22907-16.585915-73.721819-52.145706-82.690575-128.16895V512.762334z" fill="#FBC072" p-id="6746"></path><path d="M112.1205 441.453199c0-220.497899 179.387493-399.885392 399.885393-399.885392s399.885392 179.387493 399.885392 399.885392z" fill="#FCCB88" p-id="6747"></path><path d="M843.415148 461.016338m-93.579589 0a93.57959 93.57959 0 1 0 187.159179 0 93.57959 93.57959 0 1 0-187.159179 0Z" fill="#FFCABD" p-id="6748"></path><path d="M423.688468 51.414278a397.072998 397.072998 0 0 0-98.709891 36.690929 121.071002 121.071002 0 0 0-41.780024-40.047259C224.138271 14.024885 150.418512 34.717103 116.78104 91.300829c-7.676909 12.91435-15.990471 25.451654-25.88433 36.756861-16.052282 18.345465-40.039018 40.234753-67.507767 47.139026C2.622553 180.417674-6.762397 204.546575 5.430826 222.148249c27.145272 39.186028 72.35992 82.750326 130.676411 60.253232l0.160708-0.061811a94.743694 94.743694 0 0 0 11.204249-5.183871c-22.692829 50.147155-35.349634 105.768692-35.349633 164.2974h132.264949c-0.329658-7.203026-0.519211-14.443139-0.519211-21.726519-0.00206-149.637924 70.37167-282.827976 179.820169-368.312402z" fill="#FBC072" p-id="6749"></path><path d="M835.188122 367.801433c0-0.00206-60.803348-77.984708-172.419348-77.984709-69.302342 0-110.666173-34.754189-132.069215-61.106221-9.621891-11.845022-27.767501-11.845022-37.387332 0-21.403042 26.352032-62.766873 61.106221-132.069216 61.106221-111.616 0-172.417288 77.984708-172.419348 77.984709a332.542455 332.542455 0 0 0-8.222905 75.104322c0.787058 182.700555 154.11097 332.822664 336.788861 329.913432 180.549537-2.874205 326.02759-150.13241 326.02759-331.365988a332.480644 332.480644 0 0 0-8.229087-73.651766z" fill="#FFD8D2" p-id="6750"></path><path d="M372.15881 741.248258c-79.503195-83.745481-128.292571-196.933537-128.292571-321.523638 0-35.792612 4.04037-70.639517 11.66371-104.122463-43.673497 22.711372-66.706286 52.199276-66.706286 52.199276l-0.010302 0.045328a82.682334 82.682334 0 0 0-8.216724-0.410013c-51.682125 0-93.57959 41.897465-93.579589 93.57959s41.897465 93.57959 93.579589 93.57959c7.493537 0 13.884781-0.906559 19.388008-2.569272 30.054503 83.242753 92.804893 151.595268 172.174165 189.221602z" fill="#FFCABD" p-id="6751"></path><path d="M244.748074 512.941586a72.034382 57.364604 0 1 0 144.068764 0 72.034382 57.364604 0 1 0-144.068764 0Z" fill="#FF9DB0" p-id="6752"></path><path d="M635.194947 512.941586a72.034382 57.364604 0 1 0 144.068765 0 72.034382 57.364604 0 1 0-144.068765 0Z" fill="#FF9DB0" p-id="6753"></path><path d="M358.762335 473.174535a15.452716 15.452716 0 0 1-15.452716-15.452716v-29.446696c0-8.53608 6.918696-15.452716 15.452716-15.452717s15.452716 6.916636 15.452717 15.452717v29.446696a15.452716 15.452716 0 0 1-15.452717 15.452716zM665.24739 473.174535a15.452716 15.452716 0 0 1-15.452717-15.452716v-29.446696c0-8.53608 6.918696-15.452716 15.452717-15.452717s15.452716 6.916636 15.452716 15.452717v29.446696a15.452716 15.452716 0 0 1-15.452716 15.452716zM512.005893 490.704097a69.036555 69.036555 0 0 1-52.05093-23.706528 15.452716 15.452716 0 0 1 23.300636-20.304869c7.256596 8.330044 17.737658 13.105964 28.752354 13.105964s21.493698-4.77592 28.750294-13.103903c5.606245-6.438632 15.368241-7.106189 21.802752-1.499944s7.106189 15.366181 1.499944 21.800692a69.046857 69.046857 0 0 1-52.05505 23.708588z" fill="#423E4F" p-id="6754"></path><path d="M314.01951 938.464064c0-12.351871 0.949827-24.450318 2.750584-36.225287h-42.744274c-6.984628 26.50862-11.307268 56.540459-11.307267 90.192354H320.186174a237.45674 237.45674 0 0 1-6.166664-53.967067z" fill="#FFCABD" p-id="6755"></path></svg>