<?xml version="1.0" standalone="no"?><!DOCTYPE svg PUBLIC "-//W3C//DTD SVG 1.1//EN" "http://www.w3.org/Graphics/SVG/1.1/DTD/svg11.dtd"><svg t="1640423756820" class="icon" viewBox="0 0 1024 1024" version="1.1" xmlns="http://www.w3.org/2000/svg" p-id="5314" xmlns:xlink="http://www.w3.org/1999/xlink" width="200" height="200"><defs><style type="text/css"></style></defs><path d="M761.382117 854.768032l43.871291 101.528467-43.871291 67.69732H659.975211l-34.313271-118.334841zM262.617883 854.768032l-43.871291 101.528467 43.871291 67.69732h101.406906l34.313271-118.334841z" fill="#B08BD7" p-id="5315"></path><path d="M452.785191 1024h118.429618l54.447131-118.341022-54.447131-153.857545h-118.429618l-54.447131 153.857545z" fill="#FFB5EC" p-id="5316"></path><path d="M78.258736 464.900121c0-239.164781 194.576483-433.741264 433.741264-433.741264 239.166841 0 433.741264 194.576483 433.741264 433.741264z" fill="#2c2c2c" p-id="5317" data-spm-anchor-id="a313x.7781069.0.i3" class="selected"></path><path d="M862.655099 485.670632m-95.310294 0a95.310294 95.310294 0 1 0 190.620587 0 95.310294 95.310294 0 1 0-190.620587 0Z" fill="#FFBE9C" p-id="5318"></path><path d="M161.344901 485.670632m-95.310293 0a95.310294 95.310294 0 1 0 190.620587 0 95.310294 95.310294 0 1 0-190.620587 0Z" fill="#FFBE9C" p-id="5319"></path><path d="M571.214809 751.801433V1024h88.754221c-0.956008-0.016483 14.249465-45.847179 15.596942-49.401304 10.600563-27.959115 25.731863-51.612072 45.041577-74.655163 18.982117-22.653682 42.078777-42.433159 57.17093-68.123815 29.667155-50.497416 17.539863-105.628588-23.125505-146.293955zM452.785191 751.801433V1024h-88.754221c0.956008-0.016483-14.249465-45.847179-15.596942-49.401304-10.600563-27.959115-25.731863-51.612072-45.041577-74.655163-18.982117-22.653682-42.078777-42.433159-57.17093-68.123815-29.667155-50.497416-17.539863-105.628588 23.125505-146.293955z" fill="#BC9BDD" p-id="5320"></path><path d="M512 464.900121m-350.655099 0a350.655099 350.655099 0 1 0 701.310198 0 350.655099 350.655099 0 1 0-701.310198 0Z" fill="#FFD3BC" p-id="5321"></path><path d="M746.333231 63.488C677.484169 23.139928 597.395831 0 512 0 362.61138 0 229.462535 70.82495 144.348974 180.664918c-13.456225 17.366793-9.56008 42.455823 8.402157 55.108507 71.066012 50.056499 174.442624 81.763412 282.830036 81.763412 135.184483 0 262.562254-68.896451 329.208789-153.894632 25.25592-32.213763 16.857883-79.459928-18.456725-100.154205z" fill="#2c2c2c" p-id="5322" data-spm-anchor-id="a313x.7781069.0.i2" class="selected"></path><path d="M862.6654 1023.993819h-101.281223v-169.225787c-0.00206 0 101.281223 53.258302 101.281223 169.225787zM161.3346 1023.993819h101.281223v-169.225787c0.00206 0-101.281223 53.258302-101.281223 169.225787z" fill="#FFB5EC" p-id="5323"></path><path d="M239.034978 427.982551c0-95.28969 30.794173-184.006825 83.764024-258.361175-97.113111 62.35274-161.456161 171.302632-161.456161 295.280805 0 172.767549 124.946543 316.341827 289.404652 345.31464-128.407952-86.461038-211.712515-225.463372-211.712515-382.23427z" fill="#FFBE9C" p-id="5324"></path><path d="M532.830262 0.475944A472.111388 472.111388 0 0 0 512 0C362.61138 0 229.462535 70.82495 144.348974 180.664918c-13.456225 17.366793-9.56008 42.455823 8.402157 55.108507 30.899252 21.763606 67.911598 40.053441 108.783002 53.781633C303.996137 162.274125 403.464241 57.659235 532.830262 0.475944z" fill="#2c2c2c" p-id="5325" data-spm-anchor-id="a313x.7781069.0.i4" class="selected"></path><path d="M212.524298 526.67596a80.716748 64.279179 0 1 0 161.433497 0 80.716748 64.279179 0 1 0-161.433497 0Z" fill="#FF9DB0" p-id="5326"></path><path d="M650.042205 526.67596a80.716748 64.279179 0 1 0 161.433497 0 80.716748 64.279179 0 1 0-161.433497 0Z" fill="#FF9DB0" p-id="5327"></path><path d="M340.283235 480.249819a15.452716 15.452716 0 0 1-15.452716-15.452716v-32.996701c0-8.53608 6.918696-15.452716 15.452716-15.452716s15.452716 6.916636 15.452717 15.452716v32.996701a15.452716 15.452716 0 0 1-15.452717 15.452716zM683.716765 480.249819a15.452716 15.452716 0 0 1-15.452717-15.452716v-32.996701c0-8.53608 6.918696-15.452716 15.452717-15.452716s15.452716 6.916636 15.452716 15.452716v32.996701a15.452716 15.452716 0 0 1-15.452716 15.452716zM512 499.891252a75.49167 75.49167 0 0 1-56.921626-25.925538 15.452716 15.452716 0 1 1 23.300636-20.300748c8.486632 9.737272 20.739606 15.322913 33.62099 15.322913s25.136419-5.585642 33.62305-15.324974a15.452716 15.452716 0 0 1 23.300636 20.30487 75.504032 75.504032 0 0 1-56.923686 25.923477z" fill="#423E4F" p-id="5328"></path></svg>