<?xml version="1.0" standalone="no"?><!DOCTYPE svg PUBLIC "-//W3C//DTD SVG 1.1//EN" "http://www.w3.org/Graphics/SVG/1.1/DTD/svg11.dtd"><svg t="1640423740324" class="icon" viewBox="0 0 1024 1024" version="1.1" xmlns="http://www.w3.org/2000/svg" p-id="5151" xmlns:xlink="http://www.w3.org/1999/xlink" width="200" height="200"><defs><style type="text/css"></style></defs><path d="M44.668652 84.697368c0 26.321127-9.040869 45.79567-22.492974 60.205843-9.815565 10.516089-8.144612 27.256531 3.222407 36.072821 25.227074 19.565199 73.313867 43.168708 146.854374 24.784097l72.47942-114.879614C200.804958-30.959002 44.668652-18.067316 44.668652 84.697368z" fill="#FBC072" p-id="5152"></path><path d="M311.992402 85.711066c-30.386221-30.398584-80.007984-29.440515-109.11678 2.183984A498.11728 498.11728 0 0 0 147.501328 160.37241c-18.786382 29.92264-14.465803 68.849062 10.516088 93.830954l15.022101 15.022101z" fill="#B08BD7" p-id="5153"></path><path d="M937.456547 796.989296c23.817787 108.60169-171.113078 153.249738-171.113078 153.249738h-398.886117s-194.930865-44.648048-171.113078-153.249738c35.706076-165.158632-52.147767-139.877988-52.147767-374.285393 0-54.105111 10.219396-105.882012 28.84507-153.476378 28.639034-73.287082 77.181167-136.684427 138.950825-183.516459C382.889465 31.935614 471.237795 0 566.90041 0c233.088773 0 422.703903 189.615131 422.703904 422.703903 0 234.407404-87.853843 209.126761-52.147767 374.285393z" fill="#FCCB88" p-id="5154"></path><path d="M274.495871 361.012539c0-124.569497 64.579992-240.149634 147.74033-335.517617A422.168209 422.168209 0 0 0 311.992402 85.711066c-61.769658 46.832032-110.311791 110.229376-138.950825 183.516459-18.625674 47.594366-28.84507 99.371268-28.84507 153.476378 0 234.407404 87.853843 209.126761 52.147767 374.285393-23.817787 108.60169 171.113078 153.249738 171.113078 153.249738h360.555139c-254.570109-29.265384-453.51662-281.88639-453.51662-589.226495z" fill="#FBC072" p-id="5155"></path><path d="M811.652893 822.741763s72.005537 63.755847 72.005538 201.258237h-144.946479l-40.38722-137.50033z" fill="#B08BD7" p-id="5156"></path><path d="M489.694519 1024h154.411783l54.21843-137.50033-54.21843-195.509827h-154.411783l-54.21843 195.509827z" fill="#FFB5EC" p-id="5157"></path><path d="M322.147928 822.741763S250.14239 886.49761 250.14239 1024h144.946479l40.38722-137.50033z" fill="#B08BD7" p-id="5158"></path><path d="M811.652893 822.741763l-113.328161 63.755847L738.714012 1024h61.810865c0-63.242817 27.19472-116.05608 49.137578-148.374922-18.646278-35.687533-38.009561-52.883316-38.009562-52.883315z" fill="#A47CD1" p-id="5159"></path><path d="M807.437392 759.787396l-68.799613-68.799613h-94.531477V1024h94.60771c0-90.940266 43.224338-162.682076 72.940942-201.258237 14.642994-19.010962 12.751581-45.985223-4.217562-62.954367z" fill="#50E1CD" p-id="5160"></path><path d="M284.138366 875.623018c21.942857 32.320901 49.137577 85.132105 49.137578 148.376982h61.810865l40.387219-137.50033-113.328161-63.755847c0.00206-0.00206-19.361223 17.193722-38.007501 52.879195z" fill="#A47CD1" p-id="5161"></path><path d="M326.363429 759.787396l68.799613-68.799613h94.531477V1024h-94.60771c0-90.940266-43.224338-162.682076-72.940942-201.258237-14.642994-19.010962-12.751581-45.985223 4.217562-62.954367z" fill="#50E1CD" p-id="5162"></path><path d="M914.88734 463.888483m-93.375614 0a93.375614 93.375614 0 1 0 186.751228 0 93.375614 93.375614 0 1 0-186.751228 0Z" fill="#FFCABD" p-id="5163"></path><path d="M914.88734 422.703903v-0.498607 0.418253c-0.012362-51.626495-11.274302-100.617787-31.45967-144.66833-15.786495-34.453376-53.853746-52.895678-90.598245-43.617867-66.061392 16.678632-143.339396 26.267557-225.929015 26.267557-82.595799 0-159.877924-9.588926-225.945497-26.271678-36.355091-9.180974-74.41204 8.620555-90.138784 42.659799-20.471759 44.31633-31.900588 93.666125-31.904708 145.688209-0.012362 190.447517 155.091702 346.688901 345.535098 348.001353 193.286696 1.330994 350.395493-154.930994 350.4367-347.898334v0.418253c0.004121-0.16895 0.004121-0.333779 0.004121-0.498608z" fill="#FFD8D2" p-id="5164"></path><path d="M371.192789 710.048193c-60.786865-97.875445-96.696918-218.50965-96.696918-349.035654 0-42.72367 7.608918-84.386254 20.943582-124.540652-19.200515 6.805376-35.594817 20.978608-44.621264 40.521143a345.386753 345.386753 0 0 0-27.996201 93.620797 88.737738 88.737738 0 0 0-3.908507-0.100958c-51.568805 0-93.375614 41.806809-93.375614 93.375614s41.806809 93.375614 93.375614 93.375614c10.349199 0 18.617433-1.710101 25.268282-4.817127 25.983227 64.130833 70.561223 118.95295 127.011026 157.601223z" fill="#FFCABD" p-id="5165"></path><path d="M267.37526 496.170237a80.731171 64.289481 0 1 0 161.462342 0 80.731171 64.289481 0 1 0-161.462342 0Z" fill="#FF9DB0" p-id="5166"></path><path d="M704.963219 496.170237a80.731171 64.289481 0 1 0 161.462342 0 80.731171 64.289481 0 1 0-161.462342 0Z" fill="#FF9DB0" p-id="5167"></path><path d="M395.156861 449.735855a15.452716 15.452716 0 0 1-15.452716-15.452716v-33.002881c0-8.53608 6.918696-15.452716 15.452716-15.452717s15.452716 6.916636 15.452716 15.452717v33.002881a15.452716 15.452716 0 0 1-15.452716 15.452716zM738.64396 449.735855a15.452716 15.452716 0 0 1-15.452717-15.452716v-33.002881c0-8.53608 6.918696-15.452716 15.452717-15.452717s15.452716 6.916636 15.452716 15.452717v33.002881a15.452716 15.452716 0 0 1-15.452716 15.452716zM566.90041 469.379348a75.497851 75.497851 0 0 1-56.927806-25.929658 15.452716 15.452716 0 1 1 23.300635-20.300748c8.488692 9.741392 20.745787 15.324974 33.629232 15.324973s25.140539-5.587702 33.629231-15.327034a15.452716 15.452716 0 0 1 23.300636 20.30487 75.520515 75.520515 0 0 1-56.931928 25.927597z" fill="#423E4F" p-id="5168"></path></svg>