<?xml version="1.0" standalone="no"?><!DOCTYPE svg PUBLIC "-//W3C//DTD SVG 1.1//EN" "http://www.w3.org/Graphics/SVG/1.1/DTD/svg11.dtd"><svg t="1640423792266" class="icon" viewBox="0 0 1024 1024" version="1.1" xmlns="http://www.w3.org/2000/svg" p-id="6085" xmlns:xlink="http://www.w3.org/1999/xlink" width="200" height="200"><defs><style type="text/css"></style></defs><path d="M918.790964 292.48048L512 345.370867 105.209036 292.48048C162.395182 122.644465 323.143142 0 512 0s349.604818 122.644465 406.790964 292.48048z" fill="#6A647F" p-id="6086"></path><path d="M546.030249 749.887242h119.663186S800.514371 826.156041 800.514371 1023.977337h-77.675995zM301.161624 1023.977337h-77.675995c0-197.821296 134.820936-274.090095 134.820936-274.090095h119.663186z" fill="#FF889E" p-id="6087"></path><path d="M512 907.925885l43.614842 58.026756L512 1023.977337H301.161624c0-44.715051 9.026247-83.218247 23.030219-116.051452l101.01114-34.887341z" fill="#6A647F" p-id="6088"></path><path d="M722.836315 1023.977337H512v-116.051452l76.740611-44.012483 111.067546 44.012483c14.001911 32.833205 23.028158 71.336401 23.028158 116.051452z" fill="#5C586F" p-id="6089"></path><path d="M512 749.887242l43.614842 83.846643-43.614842 74.192h-187.808157c47.885878-112.357304 153.777908-158.038643 153.777908-158.038643z" fill="#50E1CD" p-id="6090"></path><path d="M699.808157 907.925885H512v-158.038643h34.030249s105.892031 45.681339 153.777908 158.038643z" fill="#00D1B3" p-id="6091"></path><path d="M410.374885 12.16823C267.119013 47.090596 151.796914 154.119921 105.209036 292.48048l117.557543 15.283429c17.817618-127.867367 71.365245-234.709204 187.608306-295.595679z" fill="#5C586F" p-id="6092"></path><path d="M941.08565 429.106253H82.91435c0-47.739595 7.831263-93.692896 22.294686-136.625773h813.581928c14.463422 42.932877 22.294686 88.886178 22.294686 136.625773z" fill="#E7886E" p-id="6093"></path><path d="M867.616821 481.582516m-100.415709 0a100.415709 100.415709 0 1 0 200.831418 0 100.415709 100.415709 0 1 0-200.831418 0Z" fill="#FFBD86" p-id="6094"></path><path d="M183.591719 292.47842c-17.518872 42.065483-27.210601 88.208333-27.210601 136.619592 0 196.401738 159.215084 355.616821 355.616822 355.616821s355.616821-159.215084 355.616821-355.616821c0-48.411259-9.689669-94.554108-27.210601-136.619592z" fill="#FED2A4" p-id="6095"></path><path d="M596.918008 149.999288c0.146282 1.95318 0.210152 3.924903 0.210152 5.898686 0 47.004062-38.124098 64.114991-85.12816 64.114992s-85.12816-17.108869-85.12816-64.114992c0-1.973783 0.06387-3.947567 0.210152-5.898686z" fill="#FCCB88" p-id="6096"></path><path d="M596.918008 149.999288c-23.743088 6.360197-53.112901 9.131323-84.918008 9.131323s-61.17492-2.771126-84.918008-9.131323c3.022484-44.276203 39.887729-79.229474 84.918008-79.229474s81.895523 34.953271 84.918008 79.229474z" fill="#FBE29F" p-id="6097"></path><path d="M340.159296 168.892391a15.452374 15.452374 0 0 1-15.452374-15.452375V120.421383c0-8.535892 6.918543-15.452374 15.452374-15.452374s15.452374 6.916483 15.452375 15.452374v33.018633a15.452374 15.452374 0 0 1-15.452375 15.452375zM683.840704 168.892391a15.452374 15.452374 0 0 1-15.452375-15.452375V120.421383c0-8.535892 6.918543-15.452374 15.452375-15.452374s15.452374 6.916483 15.452374 15.452374v33.018633a15.452374 15.452374 0 0 1-15.452374 15.452375z" fill="#423E4F" p-id="6098"></path><path d="M352.41818 746.961592c-84.47916-83.648853-136.825624-199.687943-136.825624-327.967373 0-43.870321 2.867961-86.310782 9.473336-126.515799h-41.474173a353.399921 353.399921 0 0 0-23.988266 88.77286c-1.065184-0.035025-2.115945-0.082413-3.222335-0.082413-55.457541 0-100.415709 44.958168-100.415709 100.41571S100.925637 581.998225 156.383179 581.998225c13.070648 0 23.240371-2.523888 31.195253-7.068946 33.558436 74.529892 92.044643 135.412246 164.839748 172.032313z" fill="#FFBD86" p-id="6099"></path><path d="M223.49181 522.712616a77.760468 61.924875 0 1 0 155.520936 0 77.760468 61.924875 0 1 0-155.520936 0Z" fill="#FF9DB0" p-id="6100"></path><path d="M644.987254 522.712616a77.760468 61.924875 0 1 0 155.520936 0 77.760468 61.924875 0 1 0-155.520936 0Z" fill="#FF9DB0" p-id="6101"></path><path d="M346.573062 478.553851a15.452374 15.452374 0 0 1-15.452375-15.452374v-31.788625c0-8.535892 6.918543-15.452374 15.452375-15.452374s15.452374 6.916483 15.452374 15.452374v31.788625a15.452374 15.452374 0 0 1-15.452374 15.452374zM677.426938 478.553851a15.452374 15.452374 0 0 1-15.452374-15.452374v-31.788625c0-8.535892 6.918543-15.452374 15.452374-15.452374s15.452374 6.916483 15.452375 15.452374v31.788625a15.452374 15.452374 0 0 1-15.452375 15.452374zM512 497.477859a73.297822 73.297822 0 0 1-55.263871-25.168828 15.452374 15.452374 0 0 1 23.30012-20.304419c8.07026 9.259063 19.72135 14.568498 31.965811 14.568498s23.895552-5.309436 31.963752-14.568498a15.452374 15.452374 0 0 1 23.30012 20.304419 73.310184 73.310184 0 0 1-55.265932 25.168828z" fill="#423E4F" p-id="6102"></path></svg>