<?xml version="1.0" standalone="no"?><!DOCTYPE svg PUBLIC "-//W3C//DTD SVG 1.1//EN" "http://www.w3.org/Graphics/SVG/1.1/DTD/svg11.dtd"><svg t="1640423796009" class="icon" viewBox="0 0 1024 1024" version="1.1" xmlns="http://www.w3.org/2000/svg" p-id="6248" xmlns:xlink="http://www.w3.org/1999/xlink" width="200" height="200"><defs><style type="text/css"></style></defs><path d="M209.580649 529.128786H123.61427s-1.569993 41.905622-38.862473 89.841912c-19.476564 25.037471-16.293311 61.083434 7.47704 82.088785 32.831805 29.011901 86.37639 62.490659 164.575218 71.87971l88.556248-65.364858v-66.611375zM814.417291 529.128786h85.966378s1.569993 41.905622 38.862473 89.841912c19.476564 25.037471 16.293311 61.083434-7.477039 82.088785-32.831805 29.011901-86.37639 62.490659-164.575218 71.87971l-88.554188-65.364858v-66.611375z" fill="#E7886E" p-id="6249"></path><path d="M325.885799 928.30049l-75.400862-32.421794c-12.104603 40.549906-18.333066 83.621691-18.333066 128.121304h81.458315zM698.114201 928.30049l75.400862-32.421794c12.104603 40.549906 18.333066 83.621691 18.333066 128.121304h-81.458315z" fill="#D8D8D8" p-id="6250"></path><path d="M328.906284 817.366693m-111.01003 0a111.01003 111.01003 0 1 0 222.02006 0 111.01003 111.01003 0 1 0-222.02006 0Z" fill="#50E1CD" p-id="6251"></path><path d="M695.093716 817.366693m-111.01003 0a111.01003 111.01003 0 1 0 222.02006 0 111.01003 111.01003 0 1 0-222.02006 0Z" fill="#50E1CD" p-id="6252"></path><path d="M412.262189 780.791218C379.038915 812.030366 313.608126 890.49086 313.608126 1023.99794h396.781688c0-133.505019-65.42873-211.967574-98.654063-243.206722z" fill="#FF889E" p-id="6253"></path><path d="M907.203454 317.72163c13.629268 42.406289 21.034195 87.142843 21.034195 132.771532H95.764411c0-45.628689 7.402866-90.365243 21.034195-132.769471v-50.841395H901.65491z" fill="#E7886E" p-id="6254"></path><path d="M856.961624 491.222319m-97.405486 0a97.405486 97.405486 0 1 0 194.810972 0 97.405486 97.405486 0 1 0-194.810972 0Z" fill="#FFCABD" p-id="6255"></path><path d="M412.21274 740.06206v85.024795c0 27.555228 22.338402 49.89363 49.89363 49.89363s49.89363-22.338402 49.89363-49.89363v-85.024795z" fill="#FBE29F" p-id="6256"></path><path d="M611.78726 740.06206v85.024795c0 27.555228-22.338402 49.89363-49.89363 49.89363S512 852.642083 512 825.086855v-85.024795z" fill="#FCCB88" p-id="6257"></path><path d="M649.59483 305.769493a37.026694 37.026694 0 0 0-47.919807 0c-25.976994 21.951054-57.830129 32.926582-89.672963 32.928642-31.851075 0.00206-63.691848-10.973467-89.677083-32.930702a37.022573 37.022573 0 0 0-47.917746 0 138.534353 138.534353 0 0 1-176.632434 2.198402c-19.73823 43.444709-30.736421 91.700355-30.736421 142.527327 0 190.517186 154.444438 344.961624 344.961624 344.961624s344.961624-154.444438 344.961624-344.961624c0-50.826972-10.998191-99.084678-30.736421-142.529387a138.530232 138.530232 0 0 1-176.630373-2.194282z" fill="#FFD8D2" p-id="6258"></path><path d="M797.406975 105.914765c34.171038 28.346406 64.596345 61.419273 90.357001 98.033895l13.888874 62.925395H116.788304l19.44772-62.925395c25.760656-36.614623 56.185963-69.68749 90.357001-98.033895l104.997905-66.224028C387.146424 14.276221 448.095935 0 512 0s124.853576 14.276221 180.40907 39.690737z" fill="#FF889E" p-id="6259"></path><path d="M403.303752 14.082547a441.897348 441.897348 0 0 0-71.712822 25.60819l-104.997905 66.224028c-34.171038 28.348466-64.596345 61.419273-90.357001 98.033895l-19.44772 62.925395h143.788266c22.175633-95.147334 68.733544-188.998702 142.727182-252.791508z" fill="#FF748F" p-id="6260"></path><path d="M407.304967 779.258311c-98.06274-84.13678-162.16872-223.338689-162.16872-380.846879 0-20.953841 1.262999-42.571118 3.788999-64.480965a138.927881 138.927881 0 0 1-51.150449-25.966692 342.511858 342.511858 0 0 0-26.112977 85.968438 94.432389 94.432389 0 0 0-4.623444-0.11744c-53.795948 0-97.405486 43.609538-97.405486 97.405486s43.609538 97.405486 97.405486 97.405486c10.029823 0 18.986199-1.520544 26.926819-4.334993 38.928405 92.402937 116.939741 164.295009 213.339772 194.967559z" fill="#FFCABD" p-id="6261"></path><path d="M512 338.698135c-31.851075 0.00206-63.691848-10.973467-89.677083-32.930702a37.022573 37.022573 0 0 0-47.917747 0 138.571439 138.571439 0 0 1-179.354166 0 37.024634 37.024634 0 0 0-47.917747 0c-21.475112 18.151754-53.600214 15.448564-71.745787-6.028608-18.147634-21.477172-15.448564-53.598154 6.028608-71.745787a138.571439 138.571439 0 0 1 179.352106 0 37.022573 37.022573 0 0 0 47.917746 0 138.5735 138.5735 0 0 1 179.354166 0 37.018453 37.018453 0 0 0 47.917747 0 138.571439 138.571439 0 0 1 179.354166 0 37.018453 37.018453 0 0 0 47.915687 0 138.57556 138.57556 0 0 1 179.354166 0c21.477172 18.147634 24.176241 50.268615 6.030668 71.745787-18.147634 21.473051-50.268615 24.176241-71.743727 6.030668a37.028754 37.028754 0 0 0-47.921867 0 138.569379 138.569379 0 0 1-179.350046 0 37.026694 37.026694 0 0 0-47.919807 0c-25.979054 21.948994-57.832189 32.926582-89.677083 32.928642z" fill="#50E1CD" p-id="6262"></path><path d="M347.496894 81.478919c0 34.762361-28.163034 62.925395-62.925394 62.925394-26.086193 0-48.447259-15.864757-57.978475-38.489548 31.972636-26.555955 67.243905-48.976771 104.997905-66.224028a62.603979 62.603979 0 0 1 15.905964 41.788182zM797.406975 105.914765c-9.531216 22.624791-31.890222 38.489548-57.976414 38.489548-34.762361 0-62.925395-28.163034-62.925395-62.925394 0-16.048129 6.008004-30.668429 15.903904-41.788182 37.754 17.247257 73.02527 39.670133 104.997905 66.224028z" fill="#FBE29F" p-id="6263"></path><path d="M512 112.029907m-53.083064 0a53.083064 53.083064 0 1 0 106.166128 0 53.083064 53.083064 0 1 0-106.166128 0Z" fill="#FBE29F" p-id="6264"></path><path d="M269.401084 233.455047a37.302782 37.302782 0 0 1-8.63084-5.459948 138.571439 138.571439 0 0 0-179.352106 0c-21.477172 18.147634-24.176241 50.268615-6.028608 71.745787 18.145573 21.477172 50.268615 24.180362 71.745788 6.028607a37.024634 37.024634 0 0 1 47.917746 0c16.157328 13.651932 34.583109 23.053346 53.868061 28.216604a595.975042 595.975042 0 0 1 20.479959-100.53105z" fill="#00D1B3" p-id="6265"></path><path d="M235.703928 534.871004a74.469581 59.303285 0 1 0 148.939161 0 74.469581 59.303285 0 1 0-148.939161 0Z" fill="#FF9DB0" p-id="6266"></path><path d="M639.356911 534.871004a74.469581 59.303285 0 1 0 148.939161 0 74.469581 59.303285 0 1 0-148.939161 0Z" fill="#FF9DB0" p-id="6267"></path><path d="M353.574951 493.235289a15.452685 15.452685 0 0 1-15.452686-15.452685v-30.44179c0-8.536063 6.918682-15.452685 15.452686-15.452685s15.452685 6.916622 15.452685 15.452685v30.44179a15.452685 15.452685 0 0 1-15.452685 15.452685zM670.425049 493.235289a15.452685 15.452685 0 0 1-15.452685-15.452685v-30.44179c0-8.536063 6.918682-15.452685 15.452685-15.452685s15.452685 6.916622 15.452686 15.452685v30.44179a15.452685 15.452685 0 0 1-15.452686 15.452685zM512 511.358198a70.847471 70.847471 0 0 1-53.416842-24.328707 15.452685 15.452685 0 0 1 23.300589-20.304828c7.602721 8.723556 18.580309 13.728166 30.118313 13.728165s22.515593-5.00461 30.118314-13.728165a15.454746 15.454746 0 0 1 23.300589 20.304828 70.861894 70.861894 0 0 1-53.420963 24.328707z" fill="#423E4F" p-id="6268"></path></svg>