<?xml version="1.0" standalone="no"?><!DOCTYPE svg PUBLIC "-//W3C//DTD SVG 1.1//EN" "http://www.w3.org/Graphics/SVG/1.1/DTD/svg11.dtd"><svg t="1640423807106" class="icon" viewBox="0 0 1024 1024" version="1.1" xmlns="http://www.w3.org/2000/svg" p-id="6571" xmlns:xlink="http://www.w3.org/1999/xlink" width="200" height="200"><defs><style type="text/css"></style></defs><path d="M444.277956 1024h135.444088l48.801739-65.391775v-125.020716l-48.801739-133.17563h-135.444088s-48.801738 125.234994-48.801739 133.17563v125.020716z" fill="#FBE29F" p-id="6572"></path><path d="M666.269618 1024H821.672435c0-41.227847-6.036861-77.3666-15.411509-108.663501-9.700185-32.384773-22.9854-59.525924-36.872242-81.74693h-140.864901v125.020717z" fill="#00D1B3" p-id="6573"></path><path d="M745.680097 700.411879s88.91493 99.661779-16.66421 169.135131c-51.583227 33.942406-62.74627 90.894938-62.746269 152.646052V1024h-86.547574V700.411879z" fill="#50E1CD" p-id="6574"></path><path d="M694.844781 947.354527l-53.421071-84.606712c-9.112982-14.432837-4.798584-33.520032 9.634254-42.630954s33.520032-4.798584 42.630954 9.634254l53.42107 84.606712c9.112982 14.432837 4.798584 33.520032-9.634254 42.630954-14.428716 9.110922-33.517972 4.798584-42.630953-9.634254z" fill="#FBE29F" p-id="6575"></path><path d="M357.730382 1024H202.327565c0-41.227847 6.036861-77.3666 15.411509-108.663501 9.700185-32.384773 22.9854-59.525924 36.872242-81.74693h140.864901v125.020717z" fill="#00D1B3" p-id="6576"></path><path d="M278.319903 700.411879s-88.91493 99.661779 16.66421 169.135131c51.583227 33.942406 62.74627 90.894938 62.746269 152.646052V1024h86.547574V700.411879z" fill="#50E1CD" p-id="6577"></path><path d="M329.155219 947.354527l53.421071-84.606712c9.112982-14.432837 4.798584-33.520032-9.634254-42.630954s-33.520032-4.798584-42.630954 9.634254l-53.42107 84.606712c-9.112982 14.432837-4.798584 33.520032 9.634254 42.630954 14.428716 9.110922 33.517972 4.798584 42.630953-9.634254z" fill="#FBE29F" p-id="6578"></path><path d="M814.811429 124.75493L512 191.397344 209.188571 124.75493C287.029054 47.656177 394.064869 0 512 0s224.970946 47.656177 302.811429 124.75493zM942.636298 430.636298H81.363702c0-61.336982 12.897867-119.727646 36.118149-172.596539L512 191.397344l394.518149 66.642415c23.220282 52.868893 36.118149 111.259557 36.118149 172.596539z" fill="#5C586F" p-id="6579"></path><path d="M224.60008 414.114254c0-64.22767 12.413682-125.187606 34.665594-180.024145L117.481851 258.039759c-23.220282 52.868893-36.118149 111.259557-36.118149 172.596539h143.541312a494.046004 494.046004 0 0 1-0.304934-16.522044z" fill="#4F4C5F" p-id="6580"></path><path d="M868.902117 451.713803m-100.778495 0a100.778495 100.778495 0 1 0 201.55699 0 100.778495 100.778495 0 1 0-201.55699 0Z" fill="#C7856A" p-id="6581"></path><path d="M199.548137 258.033577c-28.321738 51.154672-44.450254 109.998616-44.450254 172.608902 0 197.110728 159.791388 356.902117 356.902117 356.902117s356.902117-159.789328 356.902117-356.902117c0-62.612346-16.128515-121.454229-44.450254-172.608902L512 191.397344z" fill="#DA9D81" p-id="6582"></path><path d="M493.889416 0.407952C383.134648 5.014922 283.02371 51.624435 209.188571 124.75493l97.644685 21.489577C354.19068 78.440048 419.120934 26.939235 493.889416 0.407952z" fill="#4F4C5F" p-id="6583"></path><path d="M380.295469 762.447324c-94.475847-79.037553-155.695388-205.632386-155.695389-348.33307 0-59.492958 10.647952-116.181763 29.902037-167.800017l-54.95398 11.71934A354.444105 354.444105 0 0 0 163.943018 351.374165a89.677264 89.677264 0 0 0-8.843074-0.438857c-55.658624 0-100.778495 45.119871-100.778495 100.778495s45.119871 100.778495 100.778495 100.778495c7.790229 0 14.531734-0.91274 20.42643-2.585755 34.375082 96.979187 109.485586 174.685746 204.769095 212.540781z" fill="#C7856A" p-id="6584"></path><path d="M906.518149 258.039759H117.481851c22.004668-50.128612 53.301569-95.291751 91.70672-133.284829h605.622858c38.405151 37.993078 69.702052 83.156217 91.70672 133.284829z" fill="#D8D8D8" p-id="6585"></path><path d="M322.891718 124.75493H209.188571c-38.405151 37.993078-69.702052 83.156217-91.70672 133.284829h132.839791c16.944419-49.444571 41.69967-94.508813 72.570076-133.284829z" fill="#CACAC8" p-id="6586"></path><path d="M144.229473 206.85006h735.541054a431.983775 431.983775 0 0 0-20.754028-30.905432H164.983501a431.983775 431.983775 0 0 0-20.754028 30.905432z" fill="#FF889E" p-id="6587"></path><path d="M287.861441 175.944628H164.983501a430.609513 430.609513 0 0 0-20.754028 30.905432h127.128467a447.113014 447.113014 0 0 1 16.503501-30.905432z" fill="#FF748F" p-id="6588"></path><path d="M213.950068 507.444539a80.333521 63.974245 0 1 0 160.667043 0 80.333521 63.974245 0 1 0-160.667043 0Z" fill="#FFFFFF" p-id="6589"></path><path d="M649.382889 507.444539a80.333521 63.974245 0 1 0 160.667043 0 80.333521 63.974245 0 1 0-160.667043 0Z" fill="#FFFFFF" p-id="6590"></path><path d="M341.101199 461.315091a15.452716 15.452716 0 0 1-15.452716-15.452717v-32.838052c0-8.53608 6.918696-15.452716 15.452716-15.452716s15.452716 6.916636 15.452716 15.452716V445.862374a15.452716 15.452716 0 0 1-15.452716 15.452717zM682.898801 461.315091a15.452716 15.452716 0 0 1-15.452716-15.452717v-32.838052c0-8.53608 6.918696-15.452716 15.452716-15.452716s15.452716 6.916636 15.452716 15.452716V445.862374a15.452716 15.452716 0 0 1-15.452716 15.452717zM512 480.863807a75.213521 75.213521 0 0 1-56.705288-25.82458 15.452716 15.452716 0 0 1 1.495823-21.800692 15.448596 15.448596 0 0 1 21.802753 1.495823c8.433062 9.675461 20.609803 15.226076 33.406712 15.226077s24.97571-5.548555 33.408773-15.226077a15.450656 15.450656 0 0 1 21.802752-1.495823 15.448596 15.448596 0 0 1 1.495823 21.800692 75.227944 75.227944 0 0 1-56.707348 25.82458z" fill="#423E4F" p-id="6591"></path></svg>