<?xml version="1.0" standalone="no"?><!DOCTYPE svg PUBLIC "-//W3C//DTD SVG 1.1//EN" "http://www.w3.org/Graphics/SVG/1.1/DTD/svg11.dtd"><svg t="1640423803599" class="icon" viewBox="0 0 1024 1024" version="1.1" xmlns="http://www.w3.org/2000/svg" p-id="6414" xmlns:xlink="http://www.w3.org/1999/xlink" width="200" height="200"><defs><style type="text/css"></style></defs><path d="M774.265561 953.791099l-0.006181 0.006181-11.581295-15.180749 4.699686-15.176628c-6.25526-22.86796-14.321577-43.265545-23.230584-61.27105l-19.79596-12.209706 4.184596-15.846246c-33.05233-53.122318-69.681449-78.085666-69.681449-78.085666H365.143565s-36.629119 24.967469-69.681448 78.091847l-0.121562 18.312499-15.446535 9.706367a340.184338 340.184338 0 0 0-23.273851 61.297835l7.207147 21.100169-14.088757 9.261328c-3.920869 21.528724-6.205811 44.903533-6.205811 70.20272h118.77988l12.967919-10.229698L393.220121 1024H496.547284l15.452716-10.229698L527.452716 1024h103.327163l17.937513-10.229698L661.685312 1024h118.779879c0-25.299187-2.2767-48.682237-6.19963-70.208901z" fill="#FF889E" p-id="6415"></path><path d="M309.002817 940.351356c0-74.01439 36.447807-148.659252 89.133328-184.324121h-32.99464s-36.629119 24.967469-69.681449 78.091847l-0.121561 18.312499-15.446535 9.706367a340.184338 340.184338 0 0 0-23.273851 61.297835l7.207147 21.100169-14.088757 9.261328c-3.920869 21.528724-6.205811 44.903533-6.205811 70.20272h72.13328c-5.379606-25.130237-6.661151-53.548813-6.661151-83.648644z" fill="#FF748F" p-id="6416"></path><path d="M767.379831 923.435783H661.685312v-58.419509h73.542567a15.364121 15.364121 0 0 0 8.921368-2.849481 330.496515 330.496515 0 0 0-15.611364-28.055952H661.685312v-76.017062c-1.817239-1.376322-2.828877-2.066543-2.828877-2.066544H630.779879v78.085666H527.452716v-78.085666h-30.905432v78.085666h-103.327163v-78.085666h-28.076556s-1.011638 0.690221-2.828877 2.066544v76.017062h-66.852571a330.719034 330.719034 0 0 0-15.609304 28.051831 15.366181 15.366181 0 0 0 8.925489 2.853602h73.536386v58.419509h-105.694519a358.212507 358.212507 0 0 0-6.879549 30.361497 15.425932 15.425932 0 0 0 4.011525 0.543935h108.562543V1024h30.905433v-69.658785H496.547284V1024h30.905432v-69.658785h103.327163V1024h30.905433v-69.658785h108.566664c1.388684 0 2.72792-0.199855 4.009465-0.543935a359.003686 359.003686 0 0 0-6.88161-30.361497z m-270.832547 0h-103.327163v-58.419509H496.547284z m134.232595 0H527.452716v-58.419509h103.327163zM81.355461 430.644539C81.355461 193.185738 274.54326 0 512 0s430.644539 193.185738 430.644539 430.644539z" fill="#5C586F" p-id="6417"></path><path d="M868.902117 451.713803m-100.778495 0a100.778495 100.778495 0 1 0 201.55699 0 100.778495 100.778495 0 1 0-201.55699 0Z" fill="#FFBD86" p-id="6418"></path><path d="M215.396443 396.11493c0-151.747734 65.033272-287.198004 166.831646-376.119115-174.232467 55.18474-300.872628 218.39839-300.872628 410.648724h135.194784a527.605183 527.605183 0 0 1-1.153802-34.529609zM393.220121 759.498946v-3.471711h-28.076556s-1.011638 0.690221-2.828877 2.066544v30.967243c9.378769-11.350535 19.746511-21.33505 30.905433-29.562076z" fill="#4F4C5F" p-id="6419"></path><path d="M860.108491 351.617288c-6.226414-27.516137-25.647388-50.044137-51.917006-60.329465-84.882801-33.231581-140.885505-115.835622-140.885505-115.835622-74.453247 126.114769-241.593948 129.153803-241.593948 129.153803 50.143034-50.143034 19.752692-129.153803 19.752692-129.153803-57.908539 66.681561-145.74796 92.324829-209.648032 102.088886-33.074994 5.054068-60.214085 28.981054-68.799614 61.320499-7.967421 30.009175-12.123171 61.571863-11.913014 94.137947 1.254761 194.424016 159.958278 353.199646 354.382294 354.538881 198.264531 1.36396 359.413698-158.944579 359.413698-356.893875a357.565553 357.565553 0 0 0-8.791565-79.027251z" fill="#FED2A4" p-id="6420"></path><path d="M363.542664 755.023839c-91.010318-88.706833-148.146221-216.655324-148.146221-358.908909 0-40.397521 4.637875-79.628877 13.320241-117.148073-29.80932 7.180362-53.736306 29.906157-61.697545 59.894729a356.090334 356.090334 0 0 0-3.065819 12.531122 83.45703 83.45703 0 0 0-8.855437-0.4574c-55.658624 0-100.776435 45.119871-100.776434 100.778495s45.119871 100.778495 100.776434 100.778495c8.369191 0 15.07773-1.038423 20.47588-2.960741 32.399195 91.026801 100.848547 165.329642 187.968901 205.492282z" fill="#FFBD86" p-id="6421"></path><path d="M215.396443 500.575292a79.944113 63.663131 0 1 0 159.888225 0 79.944113 63.663131 0 1 0-159.888225 0Z" fill="#FF9DB0" p-id="6422"></path><path d="M648.715332 500.575292a79.944113 63.663131 0 1 0 159.888225 0 79.944113 63.663131 0 1 0-159.888225 0Z" fill="#FF9DB0" p-id="6423"></path><path d="M341.931525 454.744596a15.452716 15.452716 0 0 1-15.452716-15.452717V406.612475c0-8.53608 6.918696-15.452716 15.452716-15.452716s15.452716 6.916636 15.452716 15.452716v32.679404a15.452716 15.452716 0 0 1-15.452716 15.452717zM682.068475 454.744596a15.452716 15.452716 0 0 1-15.452716-15.452717V406.612475c0-8.53608 6.918696-15.452716 15.452716-15.452716s15.452716 6.916636 15.452716 15.452716v32.679404a15.452716 15.452716 0 0 1-15.452716 15.452717zM512 474.196475a74.927131 74.927131 0 0 1-56.48895-25.727743 15.452716 15.452716 0 0 1 1.499944-21.800692 15.452716 15.452716 0 0 1 21.802752 1.499944c8.375372 9.61159 20.471759 15.125119 33.186254 15.125119s24.810881-5.513529 33.188314-15.127179a15.454777 15.454777 0 0 1 23.300636 20.304869 74.927131 74.927131 0 0 1-56.48895 25.725682z" fill="#423E4F" p-id="6424"></path><path d="M321.229006 865.018334a248.570334 248.570334 0 0 1 12.436346-30.905433h-38.203235a330.719034 330.719034 0 0 0-15.609304 28.051831 15.366181 15.366181 0 0 0 8.925489 2.853602zM309.002817 940.351356c0-5.641272 0.224579-11.284604 0.638712-16.915573h-53.02136a358.212507 358.212507 0 0 0-6.879549 30.361497 15.425932 15.425932 0 0 0 4.011525 0.543935h55.357811a871.646519 871.646519 0 0 1-0.107139-13.989859z" fill="#4F4C5F" p-id="6425"></path></svg>